<?xml version="1.0" encoding="UTF-8" standalone="no"?>
<!-- Created with Inkscape (http://www.inkscape.org/) -->

<svg
   xmlns:dc="http://purl.org/dc/elements/1.1/"
   xmlns:cc="http://creativecommons.org/ns#"
   xmlns:rdf="http://www.w3.org/1999/02/22-rdf-syntax-ns#"
   xmlns:svg="http://www.w3.org/2000/svg"
   xmlns="http://www.w3.org/2000/svg"
   xmlns:sodipodi="http://sodipodi.sourceforge.net/DTD/sodipodi-0.dtd"
   xmlns:inkscape="http://www.inkscape.org/namespaces/inkscape"
   width="744.09448819"
   height="1052.3622047"
   id="svg2"
   version="1.1"
   inkscape:version="0.48.3.1 r9886"
   sodipodi:docname="New document 1">
  <defs
     id="defs4">
    <filter
       color-interpolation-filters="sRGB"
       inkscape:collect="always"
       id="filter3819-1">
      <feGaussianBlur
         inkscape:collect="always"
         stdDeviation="2.7263843"
         id="feGaussianBlur3821-2" />
    </filter>
    <filter
       color-interpolation-filters="sRGB"
       inkscape:collect="always"
       id="filter3819-11">
      <feGaussianBlur
         inkscape:collect="always"
         stdDeviation="2.7263843"
         id="feGaussianBlur3821-8" />
    </filter>
  </defs>
  <sodipodi:namedview
     id="base"
     pagecolor="#ffffff"
     bordercolor="#666666"
     borderopacity="1.0"
     inkscape:pageopacity="0.0"
     inkscape:pageshadow="2"
     inkscape:zoom="1.4142136"
     inkscape:cx="500.63731"
     inkscape:cy="466.42683"
     inkscape:document-units="px"
     inkscape:current-layer="layer1"
     showgrid="false"
     inkscape:window-width="1600"
     inkscape:window-height="850"
     inkscape:window-x="0"
     inkscape:window-y="25"
     inkscape:window-maximized="1" />
  <metadata
     id="metadata7">
    <rdf:RDF>
      <cc:Work
         rdf:about="">
        <dc:format>image/svg+xml</dc:format>
        <dc:type
           rdf:resource="http://purl.org/dc/dcmitype/StillImage" />
        <dc:title></dc:title>
      </cc:Work>
    </rdf:RDF>
  </metadata>
  <g
     inkscape:label="Layer 1"
     inkscape:groupmode="layer"
     id="layer1">
    <rect
       style="fill:#afc6e9;fill-rule:evenodd;stroke:none"
       id="rect2985"
       width="145.21912"
       height="91.590218"
       x="319.61224"
       y="494.37646" />
    <text
       xml:space="preserve"
       style="font-size:56.34873198999999744px;font-style:normal;font-weight:normal;line-height:125%;letter-spacing:0px;word-spacing:0px;fill:#ffffff;fill-opacity:1;stroke:none;font-family:Sans"
       x="318.80969"
       y="500.48907"
       id="text3755"
       sodipodi:linespacing="125%"
       transform="matrix(0.7756711,0,0,0.98814416,129.31661,81.154066)"><tspan
         sodipodi:role="line"
         id="tspan3757"
         x="318.80969"
         y="500.48907"
         style="font-size:101.42771912px;font-style:normal;font-variant:normal;font-weight:normal;font-stretch:normal;fill:#ffffff;fill-opacity:1;font-family:Kedage;-inkscape-font-specification:Kedage">Y</tspan></text>
    <path
       style="font-size:56.34873199000000454px;font-style:normal;font-weight:normal;line-height:125%;letter-spacing:0px;word-spacing:0px;fill:#ffffff;fill-opacity:1;stroke:none;font-family:Sans"
       d="M 348.09375 510.0625 C 341.99626 510.06256 337.21619 512.96972 333.75 518.8125 C 330.30909 524.6554 328.5625 532.75645 328.5625 543.09375 C 328.5625 553.39366 330.30909 561.46346 333.75 567.34375 C 337.21619 573.1866 341.99626 576.125 348.09375 576.125 C 354.1659 576.125 358.90877 573.1866 362.375 567.34375 C 363.60653 565.25448 364.64353 562.89719 365.4375 560.25 L 357.1875 560.25 C 357.09808 560.44236 357.03093 560.65719 356.9375 560.84375 C 354.76161 565.18844 351.81293 567.34376 348.09375 567.34375 C 344.32392 567.34376 341.3321 565.21349 339.15625 560.90625 C 337.00568 556.56159 335.93749 550.62206 335.9375 543.09375 C 335.93749 535.56551 337.01162 529.65102 339.1875 525.34375 C 341.36335 520.99912 344.34922 518.81256 348.09375 518.8125 C 351.81293 518.81256 354.76161 520.99292 356.9375 525.375 C 359.11333 529.71973 360.18746 535.64041 360.1875 543.09375 C 360.1875 543.23359 360.18826 543.36126 360.1875 543.5 L 367.59375 543.5 C 367.59439 543.36142 367.59375 543.23314 367.59375 543.09375 C 367.59371 532.75645 365.84116 524.6554 362.375 518.8125 C 358.90877 512.96972 354.1659 510.06256 348.09375 510.0625 z "
       id="text3755-5" />
    <text
       transform="matrix(0.76629787,0,0,1.1343953,169.98437,6.7343778)"
       sodipodi:linespacing="125%"
       id="text3879"
       y="500.48907"
       x="318.80969"
       style="font-size:56.34873199000000454px;font-style:normal;font-weight:normal;line-height:125%;letter-spacing:0px;word-spacing:0px;fill:#ffffff;fill-opacity:1;stroke:none;font-family:Sans"
       xml:space="preserve"><tspan
         style="font-size:101.42771912000000611px;font-style:normal;font-variant:normal;font-weight:normal;font-stretch:normal;fill:#ffffff;fill-opacity:1;font-family:Kedage;-inkscape-font-specification:Kedage"
         y="500.48907"
         x="318.80969"
         id="tspan3881"
         sodipodi:role="line">o</tspan></text>
    <rect
       style="fill:#ffffff;fill-opacity:1;stroke:none;"
       id="rect3886"
       width="107.83379"
       height="6.3639612"
       x="339.05771"
       y="539.70978"
       ry="3.1819806" />
  </g>
</svg>
